<?xml version="1.0" standalone="no"?>
<!DOCTYPE svg PUBLIC "-//W3C//DTD SVG 20010904//EN"
 "http://www.w3.org/TR/2001/REC-SVG-20010904/DTD/svg10.dtd">
<svg version="1.0" xmlns="http://www.w3.org/2000/svg"
 width="225.000000pt" height="225.000000pt" viewBox="0 0 225.000000 225.000000"
 preserveAspectRatio="xMidYMid meet">

<g transform="translate(0.000000,225.000000) scale(0.100000,-0.100000)"
fill="#000000" stroke="none">
<path d="M975 2239 c-153 -19 -327 -84 -464 -173 -86 -55 -225 -186 -292 -276
-158 -210 -240 -510 -210 -779 28 -260 126 -472 303 -657 106 -110 189 -172
313 -234 318 -157 682 -157 1000 0 55 27 129 72 165 99 90 67 221 206 276 292
217 335 241 756 64 1114 -62 124 -124 207 -234 313 -247 237 -574 344 -921
301z m400 -168 c266 -72 502 -267 625 -516 77 -156 95 -238 95 -430 0 -192
-18 -274 -95 -430 -96 -194 -251 -349 -445 -445 -156 -77 -238 -95 -430 -95
-192 0 -274 18 -430 95 -194 96 -349 251 -445 445 -77 156 -95 238 -95 430 0
192 18 274 95 430 135 274 386 467 690 531 98 20 333 12 435 -15z"/>
<path d="M1292 1217 l-397 -397 -161 160 c-172 172 -186 180 -238 139 -18 -14
-26 -30 -26 -52 0 -27 25 -56 193 -224 127 -127 202 -194 220 -199 27 -6 53
17 463 427 461 461 459 458 417 507 -10 12 -31 24 -46 28 -27 6 -51 -16 -425
-389z"/>
</g>
</svg>
